<?xml version="1.0" encoding="UTF-8"?>
<svg id="Layer_1" xmlns="http://www.w3.org/2000/svg" xmlns:xlink="http://www.w3.org/1999/xlink" version="1.1" viewBox="0 0 512 512">
  <!-- Generator: Adobe Illustrator 30.1.0, SVG Export Plug-In . SVG Version: 2.1.1 Build 136)  -->
  <defs>
    <style>
      .st0 {
        fill: #c68460;
      }

      .st1 {
        fill: #ffecd9;
      }

      .st2 {
        fill: #a35a3a;
      }

      .st3 {
        fill: url(#linear-gradient);
      }

      .st4 {
        fill: #efddca;
      }

      .st5 {
        fill: #8c4b2f;
      }

      .st6 {
        fill: #d3b89f;
      }

      .st7 {
        fill: #490500;
      }

      .st8 {
        fill: #fff;
      }

      .st9 {
        fill: #d8a377;
      }
    </style>
    <linearGradient id="linear-gradient" x1="256" y1="334.8" x2="256" y2="-103.5" gradientTransform="translate(512) rotate(-180) scale(1 -1)" gradientUnits="userSpaceOnUse">
      <stop offset="0" stop-color="#ff8a42"/>
      <stop offset="1" stop-color="#ffd25f"/>
    </linearGradient>
  </defs>
  <path class="st3" d="M421.8,470.8H90.2C35.6,424.1,1,354.7,1,277.2c0-140.8,114.2-255,255-255,140.8,0,255,114.2,255,255,0,77.5-34.6,146.9-89.2,193.7Z"/>
  <g>
    <path class="st8" d="M469.2,429.1c-4.1-26.1-12.5-51.4-22.3-75.8-36.2-94.3-96.7-140.9-190.6-172.6-14.6-4.7-30.6-10.6-40.4-22.2-8.2-9.4-12.8-21.7-18-33.1-5.4-12-10.9-24.2-18.2-35.2-14.7-23.4-40.4-39.6-68.6-38.4-27.3.4-48.5,13-58.9,34.8-13.5,6.4-26.6,15-28.9,21.3-.7,1.8,8.2,4,19.8,8.6,2.7,1.1,6,2.3,9.4,4.1,6,3.2,10.9,8.2,14.4,14,6.9,11.7,10.5,25.3,10.1,39-.6,13.7-2.6,27.9-3.6,41.8-2.8,35.4-3.2,71.9,7.3,106.3,19.1,62.5,72.2,111.1,134.2,129.8,58.8,18,121.8,7.4,178.8-11.4,19.2-6.9,40-10,60.3-7.6,5.4.5,11.1,2,16.3,3.4,0,0-.9-6.6-.9-6.6Z"/>
    <path class="st8" d="M279.5,468.4c-23.9,0-46.1-3.2-67.1-9.6-66.7-20.1-120.1-71.8-139.4-135-11.4-37.2-10.2-76.1-7.6-109.2.4-5.8,1-11.8,1.6-17.5.8-7.9,1.7-16.2,2-23.9.4-12-2.7-24-9-34.7-2.9-4.9-6.8-8.7-11.3-11.1-2.5-1.3-5-2.3-7.4-3.3l-1.2-.5c-3.6-1.4-7-2.6-9.9-3.7-8.3-2.9-12.1-4.3-14-8.4-1-2.1-1.1-4.4-.3-6.5,3.5-9.8,19.7-19.2,30.5-24.6,12.2-23,35.5-36.3,64.5-36.7,29.5-1.2,58.4,14.9,75.5,42.1,7.6,11.6,13.5,24.7,18.7,36.2,1,2.1,1.9,4.3,2.9,6.4,4.1,9.2,8,18,13.9,24.8,8.6,10.3,23.5,15.6,36.8,19.9,51.2,17.3,89.2,37.7,119.7,64.4,32.9,28.7,57.7,65.6,75.8,112.9,11.8,29.3,19,53.9,22.7,77.4l.9,6.8,1.6,11.7-11.5-3.1c-5-1.3-10.2-2.7-14.9-3.2h-.2c-18.1-2.2-37.7.3-56.7,7.2h-.2c-42.7,14.1-81.3,21.1-116.5,21.1ZM35.8,105.2c2.9,1,6.4,2.3,10.2,3.8l1.1.4c2.5,1,5.7,2.2,9,4,7.1,3.7,13.1,9.6,17.5,17,7.8,13.2,11.7,28.2,11.2,43.2-.3,8.3-1.2,16.8-2.1,25-.6,5.7-1.2,11.5-1.6,17.1-2.5,31.7-3.7,68.7,6.9,103.4,17.8,58.3,67.1,106,128.9,124.5,48.7,14.9,105.6,11.2,174-11.3,21.3-7.6,43.3-10.4,63.7-8,2,.2,4,.5,5.9.9-3.7-20.8-10.5-43-21-69.1-33-86-86.8-134.6-185.8-168.1-15.3-4.9-32.6-11.2-43.9-24.6-7.4-8.5-11.9-18.7-16.3-28.6-.9-2.1-1.9-4.2-2.8-6.3-5.2-11.6-10.6-23.5-17.6-34.2-14.2-22.5-37.8-35.8-61.7-34.9h-.2c-24.3.3-42.7,11.1-51.9,30.3l-1.2,2.5-2.5,1.2c-8.9,4.3-15.6,8.5-19.8,11.7Z"/>
  </g>
  <g>
    <g>
      <path class="st9" d="M52.5,98.2c-.1.3-.1.3,0,0h0Z"/>
      <path class="st9" d="M426.4,319.3c-38.9-77.8-108.9-113.8-177.3-136.8-44.9-15.1-42.9-34.5-64.2-75.3-36.9-2.8-74.1-1.8-110.4-1.8-7.5-.6-15.2-1.7-23.1-3.1-.2,2.9.5,7,4.5,11.7,21.3,25.4,27.3,37.5,24.9,67.3-2.4,29.5-11.3,88.4,3.9,138,15.2,49.6,54.8,101.2,125.4,125.7,72,25,149.4,1.6,187.1-11,37.7-12.6,67.7-4.4,67.7-4.4,0,0-5.6-44.7-38.4-110.3Z"/>
      <path class="st9" d="M184.9,107.2c-1-1.8-2-3.7-3-5.7-23-41.9-57-51-85.2-44-30,7.4-43.1,37.9-44.2,40.7-.1.3-.1.3,0,0,0,0,0-.1,0-.2,0,0-1,1.6-1.2,4.3,7.9,1.3,15.6,2.4,23.1,3.1,36.3,0,73.6-1,110.4,1.8Z"/>
      <path class="st2" d="M117.5,173.7s6.5,87.5,61.9,144.6c0,0-1.6-3.2,0,0,37.8,36.2,80.4,69.3,132.4,75.6,45.3,6.3,101.5,15.9,144-2.7-5.8-17.9-16.4-46-29.4-71.9-38.9-77.8-108.9-113.8-177.3-136.8-46.9-15.8-39.1-28.9-63.7-73.6-4-7.4-68-15.2-72.6-20.6-40-26.5,8.5,58.1,4.8,85.5Z"/>
      <path class="st2" d="M104.7,168.9c-5.1,4.6-10.8,9.4-15.9,14.2-2.6,2.5-5.2,5-7.7,7.5-.9.9-2.3,2-3.3,3.1,1.9,8.5,4.7,13.8,4.7,13.8,32.8-2.3,58.5-34,47.8-58.1-9.2,5.5-17.6,12.2-25.5,19.4Z"/>
      <path class="st1" d="M54.6,105.5s17.2,9.8,30.7-6.5c4.3,1.2,10.2-.2,15.6-.5s19.5,6.1,26.5,25c11.9,32-9.2,66.2-44.5,70.8,0,0,7.2-30.3-6.8-49.3-14-19.1-21.6-39.5-21.6-39.5Z"/>
      <path class="st2" d="M82.5,163.6s26.5-2.8,34.4-26.2c0,0,3.7,31.4-31.4,40.3-15.7,4-3-14.1-3-14.1Z"/>
      <path class="st1" d="M59.3,92.8s50.6-50.6,123.2,14c0,0,14.7,14.3,13.6,31.1-38-9.4-53.1-50.3-98.1-40.5-7.9,1.7-17.3,8.4-23.5,9.5-14.3,2.5-25.3-10.1-22.8-11.3l7.6-2.8Z"/>
      <path class="st6" d="M61.7,84.1c-12.8,4.8-35.1,16.5-35.9,23.2-.3,2.8,7.2,3.5,17.3,7.5,4.6,1.8,10.6,4.2,16.3,9.8,0,0,4.6-13.2,2.2-17.2-7.9-13.1,0-23.3,0-23.3Z"/>
      <ellipse class="st7" cx="93.6" cy="100.4" rx="13" ry="13.3"/>
      <ellipse class="st8" cx="97.3" cy="95.5" rx="3.4" ry="3.5"/>
      <circle class="st0" cx="144" cy="120.7" r="3.9"/>
      <circle class="st0" cx="142.9" cy="153.5" r="4.2"/>
      <circle class="st0" cx="137.7" cy="170" r="4.3"/>
      <circle class="st0" cx="156.4" cy="157.7" r="4.3"/>
      <circle class="st0" cx="130.1" cy="184.7" r="4.3"/>
      <circle class="st0" cx="146.8" cy="190.5" r="4.7"/>
      <ellipse class="st0" cx="142.6" cy="222.2" rx="5.1" ry="6.6" transform="translate(-61.9 55.2) rotate(-18.1)"/>
      <ellipse class="st0" cx="156.8" cy="206.9" rx="5.1" ry="6.1" transform="translate(-73.1 86.3) rotate(-25.1)"/>
      <ellipse class="st0" cx="188.8" cy="178.3" rx="4.7" ry="5.8" transform="translate(-70.5 164.1) rotate(-40.2)"/>
      <ellipse class="st0" cx="167.3" cy="189.6" rx="5" ry="6" transform="translate(-78.3 129.4) rotate(-34.8)"/>
      <circle class="st0" cx="133.1" cy="202.6" r="4.7"/>
      <circle class="st2" cx="112.7" cy="212.3" r="4.3"/>
      <ellipse class="st2" cx="118.4" cy="234.5" rx="4.5" ry="4.9"/>
      <ellipse class="st2" cx="98.7" cy="227.5" rx="4.5" ry="4.7"/>
      <ellipse class="st2" cx="91.8" cy="246.9" rx="4.6" ry="5.2"/>
      <ellipse class="st2" cx="93.6" cy="272.3" rx="5" ry="5.8"/>
      <ellipse class="st2" cx="108.1" cy="253.6" rx="4.9" ry="5.7" transform="translate(-30.6 15.3) rotate(-7.1)"/>
      <ellipse class="st2" cx="97.9" cy="296.9" rx="5" ry="5.6" transform="translate(-54.4 23.9) rotate(-10.9)"/>
      <ellipse class="st2" cx="115.5" cy="280.9" rx="5.3" ry="6.2" transform="translate(-46.7 24.1) rotate(-9.9)"/>
      <ellipse class="st2" cx="119" cy="306.4" rx="5.3" ry="6.1" transform="translate(-30.8 13.8) rotate(-5.9)"/>
      <ellipse class="st2" cx="127.8" cy="260" rx="4.9" ry="5.5" transform="translate(-39.4 23.4) rotate(-9.1)"/>
      <ellipse class="st2" cx="137.5" cy="286.4" rx="5.3" ry="6.1" transform="translate(-76.6 51.7) rotate(-16.7)"/>
      <path class="st2" d="M163.2,334.5c2.1,3.2,1.8,7.3-.7,9.1s-6.2.6-8.3-2.6c-2.1-3.2-1.8-7.3.7-9.1,2.5-1.8,6.2-.6,8.3,2.6Z"/>
      <path class="st2" d="M161.3,361.7c2.2,3,2.1,6.9-.2,8.7-2.3,1.8-5.9.9-8.1-2.1-2.2-3-2.1-6.9.2-8.7,2.3-1.8,5.9-.9,8.1,2.1Z"/>
      <path class="st2" d="M185.2,340.4c2.5,2.8,2.9,6.7.8,8.9-2.1,2.1-5.9,1.6-8.4-1.1-2.5-2.8-2.9-6.7-.8-8.9s5.9-1.6,8.4,1.1Z"/>
      <path class="st2" d="M212.8,366.4c3,2.6,3.9,6.7,2,9.2-1.9,2.5-5.9,2.5-8.9,0-3-2.6-3.9-6.7-2-9.2,1.9-2.5,5.9-2.5,8.9,0Z"/>
      <path class="st2" d="M188.2,365c2.5,3.2,2.5,7.5,0,9.6-2.5,2.1-6.5,1.2-8.9-2-2.5-3.2-2.5-7.5,0-9.6,2.5-2.1,6.5-1.2,8.9,2Z"/>
      <path class="st2" d="M217.4,389.4c3.6,1.6,5.6,5.3,4.5,8.3-1.1,2.9-5,4-8.6,2.4-3.6-1.6-5.6-5.3-4.5-8.3s5-4,8.6-2.4Z"/>
      <path class="st2" d="M242.4,384.3c3.7,1.5,5.9,5.3,4.8,8.3-1.1,3-5,4.3-8.7,2.7-3.7-1.5-5.9-5.3-4.8-8.3,1.1-3,5-4.3,8.7-2.7Z"/>
      <path class="st2" d="M278.2,398c3.5.5,6.1,3.2,5.8,6-.3,2.8-3.3,4.6-6.8,4.1s-6.1-3.2-5.8-6c.3-2.8,3.3-4.6,6.8-4.1Z"/>
      <path class="st2" d="M307.4,406c3.2.2,5.7,2.4,5.7,5s-2.6,4.4-5.8,4.2c-3.2-.2-5.7-2.4-5.7-5,0-2.5,2.6-4.4,5.8-4.2Z"/>
      <path class="st2" d="M325.3,418.3c3,0,5.6,1.9,5.8,4.3.1,2.4-2.2,4.4-5.2,4.4-3,0-5.6-1.9-5.8-4.3s2.2-4.4,5.2-4.4Z"/>
      <path class="st2" d="M344.6,408.9c2.7-.2,5.1,1.3,5.4,3.5s-1.6,4.1-4.3,4.4-5.1-1.3-5.4-3.5c-.3-2.2,1.6-4.1,4.3-4.4Z"/>
      <path class="st2" d="M287,417.1c3.5.2,6.4,2.6,6.3,5.4,0,2.8-2.9,4.9-6.4,4.7s-6.4-2.6-6.3-5.4c0-2.8,2.9-4.9,6.4-4.7Z"/>
      <path class="st2" d="M254.7,406.4c3.9.9,6.6,4.2,6,7.3-.6,3.1-4.2,4.9-8,4-3.9-.9-6.6-4.2-6-7.3.6-3.1,4.2-4.9,8-4Z"/>
      <ellipse class="st2" cx="136.6" cy="331.1" rx="5.5" ry="6.8" transform="translate(-117.9 79.2) rotate(-22.9)"/>
      <ellipse class="st0" cx="171" cy="170.7" rx="4.7" ry="5.1" transform="translate(-64.2 115.4) rotate(-31.7)"/>
      <circle class="st0" cx="153.3" cy="173.8" r="4.3"/>
      <circle class="st0" cx="173.1" cy="153.1" r="4.3"/>
      <ellipse class="st0" cx="189" cy="158.4" rx="4.3" ry="4.8" transform="translate(-56.5 181.3) rotate(-45.3)"/>
      <circle class="st0" cx="142.9" cy="136.5" r="3.9"/>
      <circle class="st0" cx="157.1" cy="142.7" r="4.3"/>
      <circle class="st0" cx="171.2" cy="136.6" r="3.9"/>
      <circle class="st0" cx="157.3" cy="126.7" r="3.9"/>
      <circle class="st0" cx="133.1" cy="110.5" r="3.5"/>
      <path class="st0" d="M186.1,196.4s-1.9,17.2,16.1,22.1c0,0-5.6-15.4-16.1-22.1Z"/>
      <path class="st0" d="M203.4,174.6s2.2,22.2,20.1,22.8c0,0-9.1-16.6-20.1-22.8Z"/>
      <path class="st0" d="M168.2,217.9s-.7,17.7,11.3,25.8c0,0,4.4-11.9-11.3-25.8Z"/>
      <path class="st0" d="M149.5,235.2s-3.1,18.4,11.1,29.3c0,0,2.6-15.7-11.1-29.3Z"/>
      <path class="st0" d="M213.6,221.9s1,25.4,33.4,35.6c0,0-20.6-27.9-33.4-35.6Z"/>
      <path class="st0" d="M193.7,232.4s-5.2,28,27.2,35.4c0,0-20.9-21.4-27.2-35.4Z"/>
      <path class="st0" d="M171.7,265s6.6,19.2,26.1,37.1c0,0-27.5.6-26.1-37.1Z"/>
      <path class="st0" d="M194.8,269.3s8.1,29,35.9,27.2c0,0-19.6-11.7-35.9-27.2Z"/>
      <path class="st0" d="M207.5,312.5s1.3,25.2,29.3,24.6c0,0-18.6-13.9-29.3-24.6Z"/>
      <path class="st0" d="M255.7,347.9s10.5,22.9,34.6,17.4c0,0-16.6-10.8-34.6-17.4Z"/>
      <path class="st0" d="M315.4,371.8s14.8,16,41.2,9.6c0,0-18.5-8.2-41.2-9.6Z"/>
      <path class="st0" d="M228.4,266.6s5.8,19.5,31.6,25.6c0,0-6.3-15.1-31.6-25.6Z"/>
      <path class="st0" d="M237.3,217.5s19.5,26.5,46.8,31.6c0,0-16.1-23.7-46.8-31.6Z"/>
      <path class="st0" d="M233.2,197.4s15.2,11.8,36.6,11.6c0,0-9.8-15.4-36.6-11.6Z"/>
      <path class="st0" d="M279.9,214.3s6.5,13.4,27.2,20.2c14.7,4.9,20.5,7.5,20.5,7.5,0,0-10.9-20.2-47.7-27.7Z"/>
      <path class="st0" d="M262.8,260.7s8.8,25.4,36.3,36.1c0,0-11.4-22.6-36.3-36.1Z"/>
      <path class="st0" d="M301.5,253.5s17.9,20.7,43.1,33c0,0-9.8-24.4-43.1-33Z"/>
      <path class="st0" d="M337.8,252.3s22.5,19.7,36.7,38.2c0,0-.6-30.4-36.7-38.2Z"/>
      <path class="st0" d="M308.1,283.6s12,22.2,37.7,32.1c0,0-9.1-20.7-37.7-32.1Z"/>
      <path class="st0" d="M270.1,303.1s8.4,17.2,31.4,24.1c0,0-5.7-17.4-31.4-24.1Z"/>
      <path class="st0" d="M320.7,324s7.6,17.4,35.6,20.7c0,0-8.9-15.9-35.6-20.7Z"/>
      <path class="st0" d="M353.3,303.8s8.9,15.5,30.8,34c0,0,.9-24.6-30.8-34Z"/>
      <path class="st0" d="M387.4,296.4s6.3,17.9,18.6,37.5c0,0,7.2-23.9-18.6-37.5Z"/>
      <path class="st0" d="M232.9,305.6s10.2,20.7,40.9,27.1c0,0-18.5-21.8-40.9-27.1Z"/>
      <path class="st0" d="M292.6,342.1s13.5,13.3,41.7,15.6c0,0-12.4-15.6-41.7-15.6Z"/>
      <path class="st0" d="M350.2,362.7s21.2,17,43.3,10.9c0,0-16.4-13-43.3-10.9Z"/>
      <path class="st0" d="M378.5,347.5s15.5,15.5,33.6,18.9c0,0-11.8-20.8-33.6-18.9Z"/>
      <path class="st0" d="M414.4,341.7s.7,12.5,13.8,24.9c0,0,2.7-16.9-13.8-24.9Z"/>
    </g>
    <path class="st7" d="M469.2,429.1c-4.1-26.1-12.5-51.4-22.3-75.8-36.2-94.3-96.7-140.9-190.6-172.6-14.6-4.7-30.6-10.6-40.4-22.2-8.2-9.4-12.8-21.7-18-33.1-5.4-12-10.9-24.2-18.2-35.2-14.7-23.4-40.4-39.6-68.6-38.4-27.3.4-48.5,13-58.9,34.8-13.5,6.4-26.6,15-28.9,21.3s8.2,4,19.8,8.6c2.7,1.1,6,2.3,9.4,4.1,6,3.2,10.9,8.2,14.4,14,6.9,11.7,10.5,25.3,10.1,39-.6,13.7-2.6,27.9-3.6,41.8-2.8,35.4-3.2,71.9,7.3,106.3,19.1,62.5,72.2,111.1,134.2,129.8,58.8,18,121.8,7.4,178.8-11.4,19.2-6.9,40-10,60.3-7.6,5.4.5,11.1,2,16.3,3.4,0,0-.9-6.6-.9-6.6ZM34.2,105.6c4.9-4.4,12.5-8,18.2-10.8-.2,6.2,2.7,11.6,7.9,13.6-4.7,2-19.7-1.2-26.2-2.8ZM444,422.6c-14.5-.4-29.1,1.5-43.1,5.5-6.7,2-13.5,4.5-20.2,6.4-52.5,16.2-110.1,24.5-163.4,8.2-66-19.6-121-75.3-133.2-143.8-5-27.3-4.6-55.3-2.5-83,1-14.2,2.9-27.9,3.5-42.3.6-20.2-6.6-40.5-19.8-55.7s-.2-.2-.3-.3c-1.9-2.1-4-6.4,2.6-7.3s11.7-4,14.1-7.7c1.2-1.5,6.5-2.7,4.8-4.9-2.1-2.1-3.8,1.9-5.5,2.9-2.2,1.9-8.1,5.5-16.6,2.8s-3.9-17.7,3.3-25.7c2.6-2.9,5.5-5.5,8.7-7.7,15.2-10.1,35.3-11.7,52.8-7.6,18.1,4.5,33,16.7,43.4,32.2,7.1,10.6,12.6,22.2,18,33.8,6.9,15,13.3,31.6,26.7,42.3,10.4,8.5,23.6,13.3,36.1,17.6,57,20.1,112.9,50.7,148.8,100.6,15.2,20.7,25.9,44.2,35.7,67.8,8.7,21.7,16.5,44.1,21,67.1-5-.8-10-1.2-15.2-1.4Z"/>
  </g>
  <g>
    <path class="st4" d="M38.5,469.4s-12.1-41.2-1.2-73.6c2.7-8.2,7.4-15.5,13.7-21.4,11-10.3,29.7-27.8,42.2-38.5,6.5-5.5,14.2-9.4,22.6-11.3,16-3.6,45.1-9.9,66.3-12.5,9.4-1.1,19,.3,27.7,4.1,15.9,7,44.5,19.6,65.2,29.4,9.2,4.3,16.9,11.2,22.2,19.8,2.5,4,4.8,7.9,5.6,9.7l17.2,101.2-281.5-7Z"/>
    <path class="st6" d="M38.4,460.2c1.6-15.3,4.9-40.5,11.6-60.2,2.1-6.1,5.6-11.7,10.3-16.1,10.3-9.6,29.3-27.4,41.8-38.1,4.8-4.1,10.6-7,16.8-8.4,15.4-3.5,44.2-9.7,64.9-12.2,1.6-.2,3.2-.3,4.8-.3,5.5,0,10.7,1.6,15.9,3.3,63.2,21.1,80.5,40.2,92.6,51.8l7.3,83.1c-104.5,5-203.9,8.2-266-2.9Z"/>
    <path class="st4" d="M251.4,464.4c-.3,1-5.2-27.7,5.1-52.4,3.9-9.3,10.8-17,19.7-21.8,22.7-12.3,51.6-22,71.1-26.9,8.1-2,16.5-2.1,24.6-.3,14,3.1,35,8.7,53,14.9,5.7,1.9,10.9,5,15.5,8.8,6.8,5.8,17.8,15.1,26.5,22.6,6.5,5.6,11.3,12.7,14,20.8s-4.7,28.9-2.5,36.7l-16.2,17.5-218,1.4,7.2-21.1Z"/>
    <path class="st6" d="M251.4,464.4c5.9-17.7,12-34.5,17.4-47.5,2.7-6.5,7.6-11.9,13.8-15.3,21.7-11.8,49.3-21,67.9-25.7,3.2-.8,6.5-1.2,9.8-1.2s5.8.3,8.6.9c12.3,2.7,61.7,16,92,43.4,4.7,4.2,8.5,9.3,10.6,15.1,2.9,8.3-.5,16.4-1.9,29.7l6.3,6.1-221.9,2.4-2.5-7.8Z"/>
    <path class="st4" d="M358.7,370.4l-37.3,17.9c-4.4,2.1-7.6,5.5-9.9,9.3-8,13.2-17.9,30.3-17.9,30.3-1.9,3.6-2.7,7.5-2.5,11.4.5,9.7,2.4,25.9,2.4,25.9l-37,7.6c-9.9-22.8-17.5-45.3,5-65.3l16.6-18.8,54-18.8,26.6.4Z"/>
    <path class="st7" d="M254.9,469.8c-.7,5-8,1.6-6.9,1.4-.6-.8-.6-1.1-1-1.8-6.1-19.6-2.2-51.1,11.1-67.1,5.4-6,12.6-9.5,19.4-13.2,19.8-10.5,40-20.4,61.4-27.5,16.5-5.9,29.3-4.5,45.8.4,21.8,6,43,14.2,62.3,26.3,13,8.4,25.3,17.9,33.8,31.3,2.1,3.6,4,7.4,4.9,11.5.9,4.2.9,8.1.8,12.2-.4,7.8-1.7,15.5-4.2,23.1-.8,2.5-3.5,3.8-6,3-2.5-.8-3.8-3.5-3-6,2.3-6.5,3.6-13.6,4.1-20.5.2-3.9.2-7.6-.7-11-2.9-9.5-9.6-16.8-17.1-23.6-16.2-14.5-35.9-24.4-56.2-32-6.8-2.5-13.8-4.8-20.8-6.7-6.8-1.8-13.8-3.9-20.8-4.1-14.3-.4-27.8,5.8-41,11.1-13.5,5.8-26.6,12.4-39.6,19.4-6.5,3.5-13,6.8-17.2,11.6-4.5,5.2-6.6,11.9-8.5,18.3-3.3,11.9-3.7,24.5-1.8,36.7.2,1.4.5,3,.8,4.3,0,0,0,0,0,0v-.2c0,0-.3-.3-.5-.6,1.2-.1-6-3.5-6.8,1.5,1.6-5,8.9-2.8,7.6,2.2h0Z"/>
    <path class="st4" d="M199.1,320.3l-75.4,27.6c-6.9,2.5-12.8,7.3-16.4,13.6-11.7,20-28,45.7-28,45.7-3.3,5-4.9,10.9-4.4,16.8,1.5,18,6.6,53.4,6.6,53.4,0,0-22.6,10.5-39.9-11.9-17.2-22.3-12.7-49-3.2-72.9l48.8-48.2,23.5-16.2,69.7-14.6,18.7,6.7Z"/>
    <path class="st7" d="M41.9,477.1c-20.3-16.9-16.1-52.1-10.9-75,1.8-8.7,5-17.9,11.3-24.3,2.4-2.8,6.5-6.3,9.2-8.9,8.9-8.3,18.3-17.5,27.2-25.7,9.5-8.8,19.3-18.1,32.2-21.6,20.4-4.9,40.8-8.8,61.6-12.1,4.2-.6,8.6-1.3,12.8-1.5,13.2-.5,25.4,4.4,37.5,8.8,27.4,10.5,55.1,23.8,75.5,45.5,3,3.4,5.8,6.8,7.9,11,2.1,4.7-4.7,8.1-7.1,3.4-1.7-3.3-4.1-6.5-6.6-9.3-19.4-21-46-33.5-72.4-43.7-11.1-4-22.7-8.8-34.6-8.4-20.4,2.1-40.5,6.7-60.5,11-7.6,1.7-15.6,3.3-22.3,7.5-6.9,4.1-12.4,10-18.4,15.4-8.7,8.2-18.2,17.5-26.9,25.8-5.3,5.2-11.9,10.6-14.6,17.6-3.9,11.2-5.9,23.3-6.7,35.1-.9,15,.8,32,10.9,43.3,3.2,3.5-1.5,8.7-5.3,5.8h0Z"/>
    <g>
      <path class="st5" d="M75.5,491.1h368.2c16,0,30.1-10.7,34.2-26.1,0-.2,0-.3.1-.5-27.5-4.2-41.4,2.2-70.6,2.3s-39.1-12.8-88.1-7.8c-32.3,3.3-36.5,10.7-73.9,7.6-16.9-1.4-31.9-8.2-58.2-7.6-20.6.5-40.5,8-70.7,7.4s-44.7-10.7-81-6.5c1.7,5.1,11.6,30.7,40,31.2Z"/>
      <path class="st7" d="M75.5,486.3h207.5c36.1,0,123.8,0,158.9,0,0,0,1.6,0,1.6,0h1.4c0,0,1.4-.1,1.4-.1l1.4-.2c12.2-1.4,22.9-10.8,25.8-22.8,0,0,3.9,5.8,3.9,5.8-27.6-6.4-55.6,5.6-83.3.8-9.6-1.6-18.4-4.2-27.3-5.7-8.9-1.5-17.9-2.3-27-2.2-6.5,0-13.9.6-20.4,1.3-11.5,1.2-22.5,3.8-33.9,6.2-11.8,2.4-23.9,2.8-35.8,1.8-16.3-.8-32.1-6.9-48.2-8-18.5-2.1-36.2,2.5-54.5,5.4-18.6,3.1-38.5,3-56.8-1.2-18-3.7-36-6.4-54.2-2.8,0,0,3.9-6.2,3.9-6.2,5.7,15.9,18.2,27.7,35.6,28h0ZM75.5,495.8c-21.2-.1-38-15.1-44.6-34.8-1-2.8,1.1-5.8,4.1-5.8,9.6-.4,19.1-.5,28.7.2,18.7,1.2,36.4,6.7,55,6.6,9.1.1,18.1-.6,27.2-1.7,13.7-1.7,27.8-4.9,41.9-5.1,14.2-.4,28.7,1.9,42.3,4.7,6.9,1.4,13.2,2.3,20.1,2.6,11.3.7,22.5.5,33.6-1.7,4.4-.8,9-1.9,13.6-2.8,12.7-2.6,25.9-3.9,38.8-4.3,10.7-.1,21.5.4,32,2.2,14,2.3,26.5,6.8,40.4,6.5,14,0,27.2-2,41.4-3.2,9.5-.7,19.2-.4,28.8.4,2.8.3,4.6,3.2,3.9,5.8-2.3,9.5-8.5,18-16.6,23.4-5.6,3.8-12.2,6-18.9,6.6-97.8.4-272.3,0-371.7.2h0Z"/>
    </g>
  </g>
</svg>